<?xml version="1.0" encoding="iso-8859-1"?>
<!-- Generator: Adobe Illustrator 19.0.0, SVG Export Plug-In . SVG Version: 6.00 Build 0)  -->
<svg version="1.1" id="Layer_1" xmlns="http://www.w3.org/2000/svg" xmlns:xlink="http://www.w3.org/1999/xlink" x="0px" y="0px"
	 viewBox="0 0 496.216 496.216" style="enable-background:new 0 0 496.216 496.216;" xml:space="preserve">
<g>
	<path style="fill:#6DC82A;" d="M474.701,462.168c-21.168-21.168-34.273-48.249-37.782-77.518
		c-6.14,2.428-12.794,3.819-19.752,3.964v62.969c7.764,14.093,17.557,27.176,29.25,38.869L474.701,462.168z"/>
	<path style="fill:#91DC5A;" d="M415.963,388.645h-18.796h-18.796c-7.397,0-14.462-1.427-20.956-3.995
		c-3.509,29.269-16.614,56.349-37.782,77.518l28.284,28.284c11.693-11.693,21.486-24.777,29.25-38.87v44.634h40v-44.634v-62.969
		C416.765,388.623,416.367,388.645,415.963,388.645z"/>
	<path style="fill:#00CCB3;" d="M143.171,197.39L51.439,289.13c-0.859,5.606-1.3,11.344-1.3,17.193
		c0,30.85,12.368,58.803,32.414,79.2l60.618-60.618V197.39z"/>
	<path style="fill:#00DDC2;" d="M183.171,324.901l60.613,60.621c20.045-20.398,32.425-48.351,32.425-79.2
		c0-5.848-0.452-11.586-1.3-17.193l-91.738-91.53V324.901z"/>
	<path style="fill:#00CCB3;" d="M183.171,61.797V197.6l91.738,91.53c18.745-24.032,29.924-54.254,29.924-87.086
		C304.834,130.592,251.933,71.514,183.171,61.797z"/>
	<path style="fill:#00CCB3;" d="M183.171,410.601h-19.997V495c46.61,0,84.399-37.788,84.399-84.399
		c0-8.734-1.322-17.159-3.789-25.078l-60.613-60.621V410.601z"/>
	<path style="fill:#00DDC2;" d="M143.171,61.797C74.405,71.516,21.515,130.594,21.515,202.044c0,32.832,11.168,63.054,29.924,87.086
		l91.732-91.741V61.797z"/>
	<path style="fill:#00DDC2;" d="M143.171,410.601v-85.696l-60.618,60.618c-2.467,7.919-3.789,16.344-3.789,25.078
		c0,46.61,37.788,84.399,84.41,84.399v-84.399H143.171z"/>
	<path style="fill:#FF9811;" d="M397.167,214.93h64.493l-1.54-15.225l-2.506-24.775h-60.448V1.216
		c-24.445,0-44.733,18.326-47.19,42.627l-22.042,217.944h69.232V214.93z"/>
	<path style="fill:#FF9811;" d="M378.371,388.645h18.796v-86.857H323.89l3.391-33.53l-5.805,57.399
		c-0.194,1.918-0.292,3.87-0.292,5.801c0,24.137,15.038,44.814,36.232,53.193C363.909,387.218,370.975,388.645,378.371,388.645z"/>
	<path style="fill:#FF7956;" d="M457.615,174.93L444.357,43.843c-2.458-24.301-22.745-42.627-47.19-42.627V174.93H457.615z"/>
	<path style="fill:#FF7956;" d="M397.167,301.788v86.857h18.796c0.404,0,0.802-0.022,1.204-0.031
		c6.959-0.145,13.612-1.537,19.752-3.964c21.193-8.379,36.231-29.056,36.231-53.193c0-1.934-0.098-3.885-0.292-5.799L460.12,199.706
		l1.54,15.225h-64.493v46.857h-69.232l-0.654,6.47l-3.391,33.53H397.167z"/>
	<polygon style="fill:#00665A;" points="143.171,324.905 143.171,410.601 163.174,410.601 183.171,410.601 183.171,324.901 
		183.171,197.6 183.171,61.797 183.171,0 143.171,0 143.171,61.797 143.171,197.39 	"/>
</g>
<g>
</g>
<g>
</g>
<g>
</g>
<g>
</g>
<g>
</g>
<g>
</g>
<g>
</g>
<g>
</g>
<g>
</g>
<g>
</g>
<g>
</g>
<g>
</g>
<g>
</g>
<g>
</g>
<g>
</g>
</svg>
